<svg width="1920" height="137" viewBox="0 0 1920 137" fill="none" xmlns="http://www.w3.org/2000/svg">
<path d="M377.423 9.98415C205 -16.9999 0 23.894 0 23.894V137H1920V42.4405C1920 42.4405 1776.28 48.6226 1691.76 38.319C1607.24 28.0154 1503.06 47.5923 1438.13 47.5923C1382.22 47.5923 1213.46 42.4405 1106.66 47.5923C947.748 55.2581 754.82 51.7137 705.63 47.5923C656.441 43.4708 486 26.9763 377.423 9.98415Z" fill="#0095D8"/>
<path d="M0 91.1406V38.5923C0 38.5923 214.933 43.744 334.18 43.744C453.427 43.744 533.361 45.8048 613.296 56.1084C693.231 66.4119 1081.11 84.9584 1149.25 82.8977C1217.39 80.837 1476.85 67.4423 1576.44 71.5637C1676.03 75.6852 1805.76 71.6901 1859.49 64.4144C1913.22 57.1387 1920 56.1084 1920 56.1084V115.354L0 91.1406Z" fill="#0057A3"/>
<path d="M0 137V77.9382C0 77.9382 283.625 82.5553 443.111 67.1356C555.638 56.2561 836.232 105.519 937.133 100.036C1038.03 94.5524 1146.8 65.3466 1230.66 64.0478C1314.53 62.7489 1482.23 88.363 1542.54 91.5314C1685.21 99.0263 1920 77.7756 1920 77.7756V137H0Z" fill="#101F69"/>
</svg>
