<svg width="146" height="89" viewBox="0 0 146 89" fill="none" xmlns="http://www.w3.org/2000/svg">
<path d="M41.1074 51.4506H44.1408V52.2247H42.0552V53.1945H43.863V53.9088H42.0552V55.6418H41.1074V51.4506Z" fill="#D49F45"/>
<path d="M46.292 51.4506H49.5205V52.2247H47.2417V53.1945H49.3328V53.9088H47.2417V54.8667H49.5683V55.6418H46.292V51.4506Z" fill="#D49F45"/>
<mask id="mask0_923_2596" style="mask-type:luminance" maskUnits="userSpaceOnUse" x="0" y="6" width="146" height="78">
<path d="M146 6.04358H0V83.0979H146V6.04358Z" fill="white"/>
</mask>
<g mask="url(#mask0_923_2596)">
<path d="M51.8311 51.4509H53.6917C54.8107 51.4509 55.6509 52.1323 55.6509 53.5221C55.6509 54.738 55.0103 55.6411 53.6917 55.6411H51.8311V51.4509ZM52.7793 54.867H53.6265C54.1755 54.867 54.7022 54.5378 54.7022 53.6098C54.7022 52.7644 54.3995 52.225 53.4573 52.225H52.7793V54.867Z" fill="#D49F45"/>
<path d="M57.793 51.4506H61.0215V52.2247H58.7427V53.1945H60.8353V53.9088H58.7427V54.8667H61.0722V55.6418H57.793V51.4506Z" fill="#D49F45"/>
<path d="M63.3125 51.4503H65.6386C66.4131 51.4503 66.9019 51.9719 66.9019 52.6065C66.9019 53.0996 66.6968 53.4692 66.2195 53.6575V53.6685C66.6844 53.7856 66.8183 54.2254 66.8486 54.6493C66.8665 54.9133 66.8611 55.4065 67.0303 55.6416H66.0791C65.9661 55.3776 65.977 54.9726 65.9298 54.6389C65.8631 54.1985 65.6878 54.0032 65.209 54.0032H64.2608V55.6416H63.3125L63.3125 51.4503ZM64.2608 53.3457H65.3011C65.7252 53.3457 65.9517 53.1699 65.9517 52.747C65.9517 52.3425 65.7252 52.1666 65.3011 52.1666H64.2608V53.3457Z" fill="#D49F45"/>
<path d="M70.456 51.4504H71.4296L73.0424 55.6416H72.0588L71.7313 54.7071H70.117L69.7786 55.6416H68.8174L70.456 51.4504ZM70.3654 54.0217H71.4839L70.9408 52.4845H70.9274L70.3654 54.0217Z" fill="#D49F45"/>
<path d="M75.5281 52.225H74.2324V51.4509H77.77V52.225H76.4749V55.6412H75.5281V52.225Z" fill="#D49F45"/>
<path d="M80.8159 51.4501H79.8672V55.6414H80.8159V51.4501Z" fill="#D49F45"/>
<path d="M85.185 51.3502C86.5215 51.3502 87.3079 52.3186 87.3079 53.5629C87.3079 54.7719 86.5215 55.7422 85.185 55.7422C83.8485 55.7422 83.0625 54.7719 83.0625 53.5629C83.0625 52.3186 83.8485 51.3502 85.185 51.3502ZM85.185 54.9666C86.0386 54.9666 86.3582 54.2613 86.3582 53.5629C86.3582 52.8297 86.0386 52.1253 85.185 52.1253C84.3338 52.1253 84.0127 52.8297 84.0127 53.5629C84.0127 54.2613 84.3338 54.9666 85.185 54.9666Z" fill="#D49F45"/>
<path d="M89.5547 51.4506H90.4974L92.2993 54.2615H92.3103V51.4506H93.2008V55.6418H92.2516L90.4551 52.8354H90.4442V55.6418H89.5547V51.4506Z" fill="#D49F45"/>
<path d="M99.0576 51.4506H102.09V52.2247H100.005V53.1945H101.812V53.9088H100.005V55.6418H99.0576V51.4506Z" fill="#D49F45"/>
<path d="M104.242 51.4503H106.569C107.345 51.4503 107.833 51.9719 107.833 52.6065C107.833 53.0996 107.627 53.4692 107.15 53.6575V53.6685C107.616 53.7856 107.75 54.2254 107.781 54.6493C107.797 54.9133 107.791 55.4065 107.96 55.6416H107.012C106.897 55.3776 106.909 54.9726 106.862 54.6389C106.794 54.1985 106.618 54.0032 106.141 54.0032H105.191V55.6416H104.242V51.4503ZM105.191 53.3457H106.232C106.655 53.3457 106.884 53.1699 106.884 52.747C106.884 52.3425 106.655 52.1666 106.232 52.1666H105.191V53.3457Z" fill="#D49F45"/>
<path d="M111.385 51.4504H112.36L113.975 55.6416H112.989L112.66 54.7071H111.049L110.708 55.6416H109.748L111.385 51.4504ZM111.297 54.0217H112.414L111.87 52.4845H111.858L111.297 54.0217Z" fill="#D49F45"/>
<path d="M115.95 51.4506H116.894L118.695 54.2615H118.707V51.4506H119.595V55.6418H118.648L116.851 52.8354H116.838V55.6418H115.95V51.4506Z" fill="#D49F45"/>
<path d="M124.865 52.8592C124.804 52.4417 124.396 52.1254 123.923 52.1254C123.07 52.1254 122.749 52.8298 122.749 53.5625C122.749 54.2614 123.07 54.9668 123.923 54.9668C124.503 54.9668 124.829 54.5792 124.901 54.0268H125.819C125.725 55.0664 124.992 55.7294 123.941 55.7424L123.783 55.9531H123.794C123.831 55.9351 123.897 55.9237 124.001 55.9237C124.273 55.9237 124.556 56.0462 124.556 56.3341C124.556 56.7929 124.208 56.9204 123.85 56.9204C123.468 56.9204 123.329 56.8681 123.101 56.7929L123.228 56.51C123.355 56.5628 123.529 56.6166 123.733 56.6166C123.88 56.6166 123.976 56.5578 123.976 56.4173C123.976 56.2699 123.867 56.2295 123.733 56.2295C123.649 56.2295 123.559 56.247 123.491 56.2699L123.327 56.0861L123.592 55.7165C122.459 55.573 121.802 54.6704 121.802 53.5625C121.802 52.3182 122.586 51.3503 123.923 51.3503C124.872 51.3503 125.67 51.8908 125.785 52.8592L124.865 52.8592Z" fill="#D49F45"/>
<path d="M129.246 51.4504H130.221L131.836 55.6416H130.85L130.521 54.7071H128.908L128.57 55.6416H127.607L129.246 51.4504ZM129.156 54.0217H130.274L129.731 52.4845H129.719L129.156 54.0217Z" fill="#D49F45"/>
<path d="M134.759 51.4501H133.811V55.6414H134.759V51.4501Z" fill="#D49F45"/>
<path d="M137.841 54.2503C137.841 54.8087 138.288 55.0249 138.796 55.0249C139.129 55.0249 139.636 54.9313 139.636 54.5024C139.636 54.0506 138.99 53.9744 138.355 53.81C137.713 53.6461 137.067 53.405 137.067 52.6175C137.067 51.7607 137.902 51.3502 138.682 51.3502C139.583 51.3502 140.411 51.7323 140.411 52.7001H139.492C139.462 52.1955 139.092 52.067 138.64 52.067C138.337 52.067 137.985 52.1896 137.985 52.5427C137.985 52.8645 138.193 52.9059 139.273 53.1759C139.589 53.2521 140.556 53.4469 140.556 54.3968C140.556 55.1654 139.933 55.7422 138.761 55.7422C137.807 55.7422 136.91 55.2839 136.923 54.2503L137.841 54.2503Z" fill="#D49F45"/>
<path d="M142.719 51.4506H145.946V52.2247H143.667V53.1945H145.759V53.9088H143.667V54.8667H145.996V55.6418H142.719V51.4506Z" fill="#D49F45"/>
<path d="M47.8815 51.0735H47.2832L47.8651 50.2411H48.8128L47.8815 51.0735Z" fill="#D49F45"/>
<path d="M59.3849 51.0735H58.7861L59.366 50.2411H60.3143L59.3849 51.0735Z" fill="#D49F45"/>
<path d="M50.5903 67.5952C50.5903 67.5952 46.0204 61.646 45.3872 60.8206C44.3101 59.4194 43.4629 59.4268 41.1064 59.4577V71.7844H43.9855V63.1867L50.5903 71.7844H53.4694V59.4577H50.5903V67.5952Z" fill="#0E1655"/>
<path d="M66.9156 71.7842H70.0272L64.4696 59.4575H61.3168L55.7607 71.7842H58.8718L60.0206 69.0455H65.7658L66.9156 71.7842ZM63.719 66.911C62.3153 66.9344 60.9987 67.0554 60.2874 68.1992L62.8255 62.365H62.9634L64.8708 66.911H63.719Z" fill="#0E1655"/>
<path d="M92.1647 71.7842H95.2747L89.7176 59.4575H86.5658L81.0098 71.7842H84.1198L85.2696 69.0455H91.0148L92.1647 71.7842ZM88.968 66.911C87.5638 66.9344 86.2467 67.0554 85.5354 68.1992L88.0725 62.365H88.2109L90.1203 66.911H88.968Z" fill="#0E1655"/>
<path d="M112.724 59.4581H109.845V71.7844H112.724V59.4581Z" fill="#0E1655"/>
<path d="M123.178 59.1603C118.865 59.1603 115.968 61.7755 115.968 65.6709C115.968 69.4457 118.932 72.0828 123.178 72.0828C127.426 72.0828 130.393 69.4457 130.393 65.6709C130.393 61.7755 127.494 59.1603 123.178 59.1603ZM123.178 69.9483C120.138 69.9483 119.054 67.7396 119.054 65.6709C119.054 62.9297 120.595 61.2948 123.178 61.2948C125.761 61.2948 127.304 62.9297 127.304 65.6709C127.304 67.7396 126.221 69.9483 123.178 69.9483Z" fill="#0E1655"/>
<path d="M143.12 67.5952C143.12 67.5952 138.551 61.646 137.915 60.8206C136.838 59.4194 135.994 59.4268 133.636 59.4577V71.7844H136.516V63.1867L143.12 71.7844H146V59.4577H143.12V67.5952Z" fill="#0E1655"/>
<path d="M73.9515 71.7841H76.832V61.5924H81.2821V59.4579H69.501V61.5924H73.9515V71.7841Z" fill="#0E1655"/>
<path d="M99.4525 71.7841H102.333V61.5924H106.782V59.4579H95.002V61.5924H99.4525V71.7841Z" fill="#0E1655"/>
<path d="M31.7277 21.5984C37.9607 22.8727 40.996 23.8057 45.1399 28.3925C45.459 28.7471 45.6098 28.4901 45.5899 28.2589C44.223 12.2575 26.98 15.8411 25.0178 6.38206C24.9476 6.04333 24.6778 6.12054 24.5529 6.22116C17.4812 11.9571 22.407 19.6921 31.7277 21.5984Z" fill="#E2001A"/>
</g>
<mask id="mask1_923_2596" style="mask-type:luminance" maskUnits="userSpaceOnUse" x="1" y="24" width="47" height="46">
<path d="M1.20606 51.9976C1.20606 58.7831 3.68194 64.9943 7.78401 69.7943C7.93932 69.9741 8.06923 70.019 8.12896 69.9587C7.8099 69.4944 7.50078 69.0182 7.21009 68.5261C0.000475287 56.3697 4.17572 40.5645 16.5357 33.2246C26.7608 27.1514 39.3831 28.7753 47.52 36.4011C47.6096 36.3628 47.6121 36.2288 47.5827 36.1247C45.4563 28.6004 38.9122 24.4659 28.9604 24.4659C13.6327 24.4659 1.20606 36.7912 1.20606 51.9976Z" fill="white"/>
</mask>
<g mask="url(#mask1_923_2596)">
<path d="M47.6117 24.4659H0V70.019H47.6117V24.4659Z" fill="url(#paint0_linear_923_2596)"/>
</g>
<mask id="mask2_923_2596" style="mask-type:luminance" maskUnits="userSpaceOnUse" x="3" y="29" width="45" height="41">
<path d="M16.5356 33.2246C4.17562 40.5645 0.000370741 56.3697 7.20999 68.5261C7.50067 69.0182 7.80979 69.4944 8.12885 69.9587C8.17764 69.9104 8.17764 69.7888 8.098 69.61C6.5853 66.2765 5.74307 62.5779 5.74307 58.683C5.74307 43.9638 17.771 32.0316 32.6074 32.0316C37.9982 32.0316 42.9918 33.6485 47.2252 36.3175C47.3691 36.4096 47.4642 36.4256 47.5199 36.4011C42.7464 31.9274 36.4287 29.519 29.9568 29.519C25.3973 29.5185 20.7616 30.7145 16.5356 33.2246Z" fill="white"/>
</mask>
<g mask="url(#mask2_923_2596)">
<path d="M47.5195 29.5185H0V69.9587H47.5195V29.5185Z" fill="url(#paint1_linear_923_2596)"/>
</g>
<mask id="mask3_923_2596" style="mask-type:luminance" maskUnits="userSpaceOnUse" x="9" y="34" width="43" height="49">
<path d="M9.42871 59.7535C9.42871 69.4262 14.9962 77.8038 23.1167 81.8864C23.5582 82.1086 23.7409 82.0224 23.5528 81.7863C13.0898 75.6269 9.29084 62.1635 15.1037 51.231C21.0724 40.0056 34.9167 35.7018 46.0273 41.6191C47.9547 42.6457 49.6744 43.913 51.1677 45.3635C51.3579 45.4278 51.4559 45.233 51.4231 45.0651C50.0532 38.0385 43.7167 34.9675 34.3353 34.9675C20.5776 34.9675 9.42871 46.0649 9.42871 59.7535Z" fill="white"/>
</mask>
<g mask="url(#mask3_923_2596)">
<path d="M51.4561 34.9675H9.29102V82.1086H51.4561V34.9675Z" fill="url(#paint2_linear_923_2596)"/>
</g>
<mask id="mask4_923_2596" style="mask-type:luminance" maskUnits="userSpaceOnUse" x="12" y="38" width="40" height="44">
<path d="M15.1032 51.231C9.29035 62.1634 13.0893 75.6269 23.5523 81.7863C23.506 81.7285 23.4373 81.6637 23.3467 81.591C18.0824 77.3967 14.7035 70.9016 14.7035 63.608C14.7035 50.959 24.8674 40.703 37.4051 40.703C42.5291 40.703 47.2125 42.4763 51.0543 45.3062C51.0961 45.3361 51.1319 45.3525 51.1673 45.3635C49.674 43.9129 47.9542 42.6457 46.0268 41.619C42.645 39.8178 39.0089 38.964 35.419 38.964C27.2168 38.9635 19.2551 43.4228 15.1032 51.231Z" fill="white"/>
</mask>
<g mask="url(#mask4_923_2596)">
<path d="M51.1669 38.9635H9.29004V81.7863H51.1669V38.9635Z" fill="url(#paint3_linear_923_2596)"/>
</g>
<mask id="mask5_923_2596" style="mask-type:luminance" maskUnits="userSpaceOnUse" x="18" y="53" width="30" height="29">
<path d="M21.0672 54.0868C16.5211 61.8506 17.7949 71.7604 24.5566 77.5437C31.0504 83.0979 40.5164 83.054 47.4194 77.9841C47.6886 77.7838 47.5762 77.5751 47.2516 77.6663C47.2038 77.6812 47.1521 77.6927 47.1028 77.7066C40.4467 80.7068 32.5352 79.9283 26.803 75.0252C20.7158 69.8172 18.8338 61.4541 21.4002 54.0693C21.3913 53.9662 21.3435 53.9094 21.2798 53.9094C21.2171 53.9094 21.1384 53.9647 21.0672 54.0868Z" fill="white"/>
</mask>
<g mask="url(#mask5_923_2596)">
<path d="M32.1047 38.3142L1.9375 68.5037L32.1047 98.6931L62.272 68.5037L32.1047 38.3142Z" fill="url(#paint4_linear_923_2596)"/>
</g>
<mask id="mask6_923_2596" style="mask-type:luminance" maskUnits="userSpaceOnUse" x="20" y="54" width="28" height="26">
<path d="M26.8024 75.0252C32.5346 79.9283 40.4461 80.7068 47.1022 77.7066C40.9866 79.3758 33.9368 77.9323 28.4803 73.2658C22.6385 68.2685 20.1587 60.8857 21.3937 54.2123C21.4041 54.1575 21.4041 54.1107 21.3996 54.0693C18.8331 61.4541 20.7152 69.8172 26.8024 75.0252Z" fill="white"/>
</mask>
<g mask="url(#mask6_923_2596)">
<path d="M47.102 54.0693H18.833V80.7068H47.102V54.0693Z" fill="url(#paint5_linear_923_2596)"/>
</g>
<mask id="mask7_923_2596" style="mask-type:luminance" maskUnits="userSpaceOnUse" x="24" y="43" width="15" height="17">
<path d="M32.1593 44.2128C26.5007 46.3433 23.1677 51.4048 24.7162 55.5199C26.0985 59.2055 31.5157 61.8172 34.6541 57.0133C34.7064 56.9301 34.6989 56.8399 34.6347 56.7672C32.0986 56.8992 30.0831 56.1973 29.2782 54.6621C27.7954 51.8262 30.9811 47.229 36.3958 44.3921C36.9642 44.0937 37.5332 43.8292 38.1006 43.5946C38.2091 43.485 38.128 43.3082 37.9309 43.2952C37.681 43.2808 37.4281 43.2728 37.1728 43.2728C35.5655 43.2728 33.8537 43.5737 32.1593 44.2128Z" fill="white"/>
</mask>
<g mask="url(#mask7_923_2596)">
<path d="M38.2094 43.2728H23.168V61.8172H38.2094V43.2728Z" fill="url(#paint6_linear_923_2596)"/>
</g>
<mask id="mask8_923_2596" style="mask-type:luminance" maskUnits="userSpaceOnUse" x="28" y="43" width="11" height="14">
<path d="M36.3962 44.3922C30.9816 47.229 27.7959 51.8263 29.2787 54.6621C30.0836 56.1974 32.099 56.8992 34.6351 56.7672C34.6043 56.7324 34.562 56.6995 34.5037 56.6766C33.5734 56.2766 32.7929 55.7057 32.2723 54.8903C30.3658 51.9065 32.5236 47.1189 37.0926 44.1954C37.4087 43.9937 37.7283 43.8054 38.0498 43.633C38.0697 43.6221 38.0871 43.6081 38.1011 43.5947C37.5336 43.8293 36.9647 44.0938 36.3962 44.3922Z" fill="white"/>
</mask>
<g mask="url(#mask8_923_2596)">
<path d="M38.1011 43.5947H27.7959V56.8992H38.1011V43.5947Z" fill="url(#paint7_linear_923_2596)"/>
</g>
<mask id="mask9_923_2596" style="mask-type:luminance" maskUnits="userSpaceOnUse" x="22" y="6" width="24" height="23">
<path d="M24.7777 6.13574C24.6941 6.13574 24.6095 6.17659 24.5537 6.22092C19.2406 11.6182 27.4801 17.7332 33.732 19.2201C39.1173 20.5003 42.9476 23.4303 45.2851 28.3653C45.3513 28.5063 45.411 28.5596 45.4598 28.5596C45.5579 28.5282 45.6012 28.3892 45.5907 28.2592C44.2243 12.2578 26.9803 15.8413 25.0186 6.38232C24.9803 6.19652 24.8812 6.13574 24.7787 6.13574H24.7777Z" fill="white"/>
</mask>
<g mask="url(#mask9_923_2596)">
<path d="M39.0112 -5.28712L9.53809 11.7417L25.8309 39.9824L55.304 22.9536L39.0112 -5.28712Z" fill="url(#paint8_linear_923_2596)"/>
</g>
<defs>
<linearGradient id="paint0_linear_923_2596" x1="23.8058" y1="24.4646" x2="23.8058" y2="70.0177" gradientUnits="userSpaceOnUse">
<stop stop-color="#0E1655"/>
<stop offset="0.08685" stop-color="#0E1759"/>
<stop offset="0.17774" stop-color="#111C65"/>
<stop offset="0.27017" stop-color="#15257A"/>
<stop offset="0.3" stop-color="#172983"/>
<stop offset="0.713542" stop-color="#009EE0"/>
<stop offset="1" stop-color="#BDE4F7"/>
</linearGradient>
<linearGradient id="paint1_linear_923_2596" x1="23.7599" y1="29.5172" x2="23.7599" y2="69.9577" gradientUnits="userSpaceOnUse">
<stop stop-color="#172983"/>
<stop offset="0.45" stop-color="#009EE0"/>
<stop offset="1" stop-color="#BDE4F7"/>
</linearGradient>
<linearGradient id="paint2_linear_923_2596" x1="30.3731" y1="34.9665" x2="30.3731" y2="82.0145" gradientUnits="userSpaceOnUse">
<stop stop-color="#0E1655"/>
<stop offset="0.07238" stop-color="#0E1759"/>
<stop offset="0.14812" stop-color="#111C65"/>
<stop offset="0.22515" stop-color="#15257A"/>
<stop offset="0.25" stop-color="#172983"/>
<stop offset="0.55" stop-color="#009EE0"/>
<stop offset="1" stop-color="#D5EDFA"/>
</linearGradient>
<linearGradient id="paint3_linear_923_2596" x1="30.2278" y1="38.9631" x2="30.2278" y2="81.7858" gradientUnits="userSpaceOnUse">
<stop stop-color="#172983"/>
<stop offset="0.18612" stop-color="#0D5AAA"/>
<stop offset="0.45" stop-color="#009EE0"/>
<stop offset="1" stop-color="#D5EDFA"/>
</linearGradient>
<linearGradient id="paint4_linear_923_2596" x1="19.3697" y1="55.7594" x2="44.5228" y2="80.8939" gradientUnits="userSpaceOnUse">
<stop stop-color="#006AB3"/>
<stop offset="0.41718" stop-color="#009EE0"/>
<stop offset="0.54976" stop-color="#3CB4E7"/>
<stop offset="0.70762" stop-color="#7DCCEF"/>
<stop offset="0.84079" stop-color="#ACDEF5"/>
<stop offset="0.94224" stop-color="#CAE8F8"/>
<stop offset="1" stop-color="#D5EDFA"/>
</linearGradient>
<linearGradient id="paint5_linear_923_2596" x1="20.2834" y1="67.3885" x2="47.1022" y2="67.3885" gradientUnits="userSpaceOnUse">
<stop stop-color="#009EE0"/>
<stop offset="0.05275" stop-color="#0FA3E1"/>
<stop offset="0.31177" stop-color="#54BDEA"/>
<stop offset="0.54523" stop-color="#8BD1F1"/>
<stop offset="0.74496" stop-color="#B3E0F5"/>
<stop offset="0.90312" stop-color="#CCE9F8"/>
<stop offset="1" stop-color="#D5EDFA"/>
</linearGradient>
<linearGradient id="paint6_linear_923_2596" x1="30.6884" y1="43.2726" x2="30.6884" y2="59.6263" gradientUnits="userSpaceOnUse">
<stop stop-color="#0E1655"/>
<stop offset="0.19381" stop-color="#111E69"/>
<stop offset="0.4" stop-color="#172983"/>
<stop offset="1" stop-color="#009EE0"/>
</linearGradient>
<linearGradient id="paint7_linear_923_2596" x1="32.9478" y1="43.5947" x2="32.9478" y2="56.7832" gradientUnits="userSpaceOnUse">
<stop stop-color="#172983"/>
<stop offset="0.16459" stop-color="#162D86"/>
<stop offset="0.35681" stop-color="#133C92"/>
<stop offset="0.56286" stop-color="#0E53A4"/>
<stop offset="0.77869" stop-color="#0874BE"/>
<stop offset="1" stop-color="#009EE0"/>
</linearGradient>
<linearGradient id="paint8_linear_923_2596" x1="39.0034" y1="13.5448" x2="27.8789" y2="19.9628" gradientUnits="userSpaceOnUse">
<stop stop-color="#5B0C0C"/>
<stop offset="0.04166" stop-color="#680A0D"/>
<stop offset="0.17601" stop-color="#8D0711"/>
<stop offset="0.3167" stop-color="#AC0414"/>
<stop offset="0.46346" stop-color="#C30216"/>
<stop offset="0.61883" stop-color="#D40118"/>
<stop offset="0.78864" stop-color="#DE0019"/>
<stop offset="1" stop-color="#E2001A"/>
</linearGradient>
</defs>
</svg>
